<?xml version="1.0" encoding="UTF-8"?>
<svg width="170px" height="94px" viewBox="0 0 170 94" version="1.1" xmlns="http://www.w3.org/2000/svg" xmlns:xlink="http://www.w3.org/1999/xlink">
    <!-- Generator: Sketch 47 (45396) - http://www.bohemiancoding.com/sketch -->
    <title>logo-white</title>
    <desc>Created with Sketch.</desc>
    <defs>
        <polygon id="path-1" points="0 93.8601 169.784 93.8601 169.784 1.0001 0 1.0001"></polygon>
    </defs>
    <g id="Page-1" stroke="none" stroke-width="1" fill="none" fill-rule="evenodd">
        <g id="logo-white">
            <mask id="mask-2" fill="white">
                <use xlink:href="#path-1"></use>
            </mask>
            <g id="Clip-2"></g>
            <path d="M0,11.1665 C0,11.1665 0.613,10.6275 1.783,9.6625 C2.077,9.4235 2.406,9.1575 2.767,8.8635 C3.156,8.5925 3.58,8.2975 4.039,7.9785 C4.509,7.6585 5.014,7.3145 5.554,6.9465 C6.115,6.6245 6.71,6.2815 7.34,5.9205 C9.886,4.5005 13.195,2.9645 17.361,1.9895 C21.508,1.0025 26.516,0.6615 31.901,1.3935 C34.586,1.7555 37.358,2.3845 40.103,3.2975 C42.877,4.1705 45.609,5.3395 48.314,6.6825 C53.729,9.3775 58.894,12.8755 63.817,16.7635 C68.715,20.6675 73.392,24.9635 77.859,29.4135 C82.339,33.8615 86.639,38.4485 90.857,42.9615 C95.063,47.4865 99.19,51.9275 103.286,56.1085 C107.391,60.2665 111.44,64.2165 115.529,67.6375 C119.6,71.1045 123.702,74.0375 127.79,76.4345 C131.885,78.8015 135.992,80.5545 140.005,81.7825 C141.008,82.0885 142.009,82.3245 142.993,82.5975 C143.994,82.8005 144.972,82.9995 145.925,83.1945 C146.901,83.3445 147.853,83.4905 148.778,83.6325 C149.712,83.7135 150.628,83.7945 151.528,83.8995 C155.116,84.1465 158.37,84.1135 161.083,83.9495 C163.789,83.7695 165.983,83.5735 167.467,83.3735 C168.978,83.2095 169.784,83.1225 169.784,83.1225 C169.784,83.1225 169.148,83.6185 167.907,84.5125 C167.285,84.9545 166.524,85.5325 165.568,86.0875 C164.617,86.6545 163.537,87.3795 162.244,88.0115 C160.964,88.6855 159.522,89.4075 157.882,90.0575 C156.263,90.7955 154.427,91.3405 152.44,91.9715 C148.452,93.1185 143.688,93.9145 138.383,93.8575 C133.089,93.8065 127.282,92.8785 121.492,90.9695 C115.717,89.0435 109.955,86.2235 104.553,82.7445 C99.112,79.2915 94.006,75.2245 89.174,70.8905 C84.354,66.5475 79.811,61.9335 75.481,57.2885 C66.839,47.9775 58.981,38.5465 51.355,30.5995 C47.534,26.6505 43.772,23.0635 40.014,20.1025 C38.132,18.6315 36.268,17.2625 34.393,16.1205 C33.466,15.4995 32.518,15.0275 31.595,14.4815 C31.13,14.2285 30.66,14.0155 30.195,13.7795 C29.729,13.5495 29.27,13.3015 28.803,13.1155 C25.094,11.4635 21.399,10.4785 17.934,10.0485 C14.468,9.6005 11.275,9.7235 8.6,9.9265 C7.926,9.9875 7.288,10.0445 6.688,10.0985 C6.092,10.1805 5.533,10.2575 5.014,10.3285 C4.483,10.4015 3.991,10.4685 3.541,10.5305 C3.084,10.6155 2.668,10.6935 2.296,10.7625 C0.806,11.0415 0,11.1665 0,11.1665" id="Fill-1" fill="#FFFFFF" mask="url(#mask-2)"></path>
            <path d="M63.9205,57.4562 C60.5425,54.8572 56.9735,53.5392 53.3115,53.5392 C43.5195,53.5392 35.5065,62.9352 32.2045,71.6642 C31.7415,72.8852 28.2325,84.4782 30.2905,87.4602 C30.9565,88.4242 32.0935,88.5402 33.5105,87.6662 C35.0365,86.7252 35.7515,83.6332 36.5075,80.3612 C37.2075,77.3332 38.0785,73.5642 39.4125,73.5642 C39.5325,73.5642 39.6645,73.5932 39.8075,73.6512 C40.3585,74.7022 39.9795,76.4042 39.6135,78.0522 C39.4815,78.6502 39.3495,79.2472 39.2555,79.8212 L39.2415,79.9122 C37.6785,89.5482 39.0415,90.9392 40.2025,91.1462 C40.2405,91.1532 40.3605,91.1632 40.3985,91.1632 C42.5295,91.1632 44.1735,83.7432 44.7815,80.5532 C44.8205,80.3522 44.8665,80.0562 44.9215,79.6952 C45.7175,74.5372 46.4045,74.1362 46.5955,74.1362 C46.6425,74.1362 46.7915,74.2002 47.0135,74.4422 C48.1015,75.6272 47.4925,78.8652 47.0475,81.2292 C46.8355,82.3582 46.6525,83.3322 46.6215,84.0952 C46.5665,85.4702 46.6065,87.9142 47.4915,88.8362 C47.8045,89.1622 48.1415,89.2302 48.3685,89.2302 C49.2715,89.2302 50.0705,88.2552 50.9575,86.0692 C51.9775,83.5522 51.9485,79.9292 51.9215,76.7332 C51.9105,75.4422 51.9015,74.2242 51.9625,73.2062 C52.0035,72.5292 52.0285,71.8232 52.0545,71.1002 C52.1795,67.5812 52.3215,63.5942 54.4395,60.9062 C55.5455,59.5022 58.2555,58.0512 60.8775,58.0512 C61.7675,58.0512 62.5565,58.2232 63.2215,58.5622 C63.5275,58.7172 63.8955,58.6142 64.0755,58.3282 C64.2575,58.0412 64.1905,57.6632 63.9205,57.4562" id="Fill-4" fill="#FFFFFF" mask="url(#mask-2)"></path>
            <path d="M8.4377,29.8718 C8.4377,31.6768 7.1947,33.1398 5.2367,33.1398 C3.2327,33.1398 2.0357,31.6768 2.0357,29.8718 C2.0357,28.0668 3.2597,26.6038 5.2367,26.6038 C7.1807,26.6038 8.4377,28.0668 8.4377,29.8718" id="Fill-6" fill="#FFFFFF" mask="url(#mask-2)"></path>
            <path d="M24.6147,31.0059 C24.6147,32.8109 23.3717,34.2739 21.4137,34.2739 C19.4097,34.2739 18.2137,32.8109 18.2137,31.0059 C18.2137,29.2009 19.4367,27.7379 21.4137,27.7379 C23.3577,27.7379 24.6147,29.2009 24.6147,31.0059" id="Fill-8" fill="#FFFFFF" mask="url(#mask-2)"></path>
        </g>
    </g>
</svg>